<svg xmlns="http://www.w3.org/2000/svg" viewBox="0 0 322.52 227.12"><defs><style>.a{fill:#0066b2;}.b{fill:#fff;}.c{fill:#f9a533;}</style></defs><rect class="a" width="322.52" height="227.12" rx="29.88"/><polygon class="b" points="141.08 152.48 121.33 152.48 133.68 76.58 153.44 76.58 141.08 152.48"/><path class="b" d="M104.7,76.58,85.86,128.79l-2.23-11.24h0L77,83.42s-.8-6.84-9.37-6.84H36.47l-.37,1.29a73.73,73.73,0,0,1,20.67,8.68l17.17,65.93H94.53L126,76.58Z"/><path class="b" d="M260.13,152.48h18.14l-15.82-75.9H246.56c-7.33,0-9.12,5.66-9.12,5.66L208,152.48h20.6l4.12-11.27h25.12Zm-21.75-26.85,10.39-28.4,5.84,28.4Z"/><path class="b" d="M209.52,94.84l2.82-16.31a57.16,57.16,0,0,0-17.77-3.3c-9.81,0-33.1,4.28-33.1,25.12,0,19.61,27.33,19.86,27.33,30.15s-24.51,8.46-32.6,2l-2.94,17s8.82,4.29,22.31,4.29,33.83-7,33.83-26c0-19.74-27.58-21.58-27.58-30.15S201.06,90.18,209.52,94.84Z"/><path class="c" d="M83.63,117.55,77,83.42s-.8-6.84-9.37-6.84H36.47l-.37,1.29A76.57,76.57,0,0,1,65.43,92.59,59.13,59.13,0,0,1,83.63,117.55Z"/></svg>